<svg width="16" height="15" viewBox="0 0 16 15" fill="none" xmlns="http://www.w3.org/2000/svg">
<path d="M0.98982 2.89888L3.00491 1.88473C3.06691 1.84275 3.11607 1.79293 3.14957 1.7381C3.18308 1.68327 3.20029 1.62451 3.20019 1.56518V0.300368C3.20037 0.23935 3.17374 0.179672 3.12368 0.1289C3.07362 0.0781279 3.00239 0.0385507 2.91902 0.0151843C2.83565 -0.00818205 2.7439 -0.0142853 2.6554 -0.00234874C2.56689 0.00958779 2.48562 0.0390254 2.42189 0.0822305L0.395479 1.10403C0.270953 1.18835 0.20076 1.30252 0.200195 1.42167V2.68457C0.201585 2.74602 0.2298 2.80583 0.281289 2.85647C0.332777 2.90712 0.405249 2.94636 0.489605 2.96925C0.573962 2.99215 0.666442 2.99768 0.755436 2.98516C0.84443 2.97264 0.925971 2.94262 0.98982 2.89888Z" fill="#151515"/>
<path d="M14.8931 3.08101C15.0895 2.89139 15.1999 2.63448 15.2002 2.36655V0.977694C15.2002 0.716191 15.0924 0.465401 14.9006 0.280491C14.7087 0.0955804 14.4486 -0.00830078 14.1773 -0.00830078H6.64724C6.43942 -0.00771161 6.24032 0.0722754 6.09359 0.214129C5.94685 0.355983 5.86445 0.548128 5.86445 0.748445V9.14388C5.86445 9.3442 5.94685 9.53634 6.09359 9.6782C6.24032 9.82005 6.43942 9.90004 6.64724 9.90063H7.53625C7.74447 9.90063 7.94416 9.8209 8.0914 9.67898C8.23863 9.53707 8.32135 9.34458 8.32135 9.14388V2.75827C8.32105 2.67226 8.3384 2.58704 8.37241 2.50751C8.40641 2.42799 8.45641 2.35574 8.51951 2.29492C8.58261 2.23409 8.65756 2.1859 8.74007 2.15312C8.82257 2.12034 8.91099 2.10362 9.00022 2.10391H11.7042C11.7948 2.10471 11.8831 2.13116 11.9582 2.17999C12.0333 2.22882 12.0919 2.29786 12.1266 2.37852C12.1613 2.45917 12.1706 2.54789 12.1534 2.63362C12.1362 2.71935 12.0932 2.7983 12.0298 2.86066L9.93311 4.87939L9.54287 5.25554C9.43395 5.35907 9.34748 5.48243 9.28845 5.61846C9.22942 5.75448 9.19902 5.90045 9.19902 6.0479C9.19902 6.19534 9.22942 6.34131 9.28845 6.47734C9.34748 6.61336 9.43395 6.73672 9.54287 6.84025L9.93542 7.21863L12.4616 9.78489C12.5361 9.86473 12.5896 9.96072 12.6174 10.0647C12.6453 10.1687 12.6467 10.2777 12.6215 10.3823C12.5964 10.4869 12.5454 10.5842 12.4729 10.6658C12.4005 10.7474 12.3087 10.8109 12.2053 10.851L8.06965 12.3289C7.82841 12.4157 7.56275 12.4157 7.3215 12.3289L5.35875 11.6256L3.37984 10.9C3.16304 10.8217 2.97617 10.6815 2.84415 10.4982C2.71213 10.3148 2.64124 10.0971 2.64093 9.87392V3.86446C2.64087 3.79847 2.62052 3.73398 2.58246 3.67913C2.54439 3.62428 2.49032 3.58154 2.42707 3.55629C2.36382 3.53105 2.29422 3.52443 2.22708 3.53729C2.15993 3.55015 2.09824 3.5819 2.0498 3.62853L0.507304 4.71246C0.312243 4.90384 0.202103 5.16087 0.200195 5.42914V11.5232C0.200719 11.77 0.27952 12.0109 0.426033 12.2133C0.572546 12.4158 0.779766 12.5703 1.01993 12.6561L1.63646 12.8786L2.2276 13.0879L2.51855 13.1925L3.40756 13.5085L7.35845 14.9241C7.60782 15.0142 7.88263 15.0142 8.132 14.9241L14.0156 12.7985C14.3626 12.6738 14.6618 12.4498 14.8731 12.1567C15.0844 11.8635 15.1977 11.5151 15.1979 11.1582V9.65802C15.1972 9.22595 15.0225 8.811 14.7107 8.50064L12.5701 6.37285C12.4295 6.2347 12.3507 6.0489 12.3507 5.85537C12.3507 5.66185 12.4295 5.47604 12.5701 5.33789L14.8931 3.08101Z" fill="#151515"/>
</svg>
