<svg width="170" height="49" viewBox="0 0 170 49" fill="none" xmlns="http://www.w3.org/2000/svg">
<g clip-path="url(#clip0_42_3)">
<path d="M2.03493 11.0395L7.22799 7.19778C7.38777 7.03876 7.51445 6.85 7.6008 6.6423C7.68715 6.43459 7.73149 6.21201 7.73126 5.98728V1.19601C7.73171 0.964866 7.66307 0.738796 7.53407 0.546466C7.40507 0.354136 7.22151 0.204213 7.00666 0.115698C6.7918 0.0271832 6.55535 0.00406343 6.32726 0.0492805C6.09917 0.0944975 5.88974 0.206011 5.72551 0.369677L0.503262 4.24038C0.182348 4.55978 0.00145397 4.99228 0 5.44364V10.2277C0.0035824 10.4604 0.0762928 10.687 0.208984 10.8788C0.341675 11.0707 0.52844 11.2193 0.745834 11.3061C0.963229 11.3928 1.20156 11.4137 1.4309 11.3663C1.66025 11.3189 1.87039 11.2052 2.03493 11.0395Z" fill="#CED5DA"/>
<path d="M46.4309 10.2204C47.0512 9.6029 47.4 8.76623 47.4009 7.89364V3.37056C47.4009 2.51892 47.0605 1.70217 46.4546 1.09998C45.8486 0.49778 45.0268 0.15947 44.1698 0.15947H20.3853C19.7289 0.161388 19.1 0.421882 18.6365 0.883857C18.173 1.34583 17.9128 1.97159 17.9128 2.62396V29.9654C17.9128 30.6178 18.173 31.2435 18.6365 31.7055C19.1 32.1675 19.7289 32.428 20.3853 32.4299H23.1933C23.851 32.4299 24.4818 32.1702 24.9469 31.7081C25.4119 31.2459 25.6732 30.619 25.6732 29.9654V9.16938C25.6722 8.88925 25.727 8.61171 25.8345 8.35272C25.9419 8.09374 26.0998 7.85843 26.2991 7.66036C26.4984 7.46228 26.7352 7.30533 26.9958 7.19857C27.2564 7.09182 27.5356 7.03735 27.8175 7.03831H36.3584C36.6445 7.0409 36.9235 7.12706 37.1608 7.28607C37.398 7.44509 37.5829 7.66994 37.6925 7.93262C37.8021 8.1953 37.8316 8.48421 37.7772 8.7634C37.7229 9.0426 37.5871 9.29973 37.3868 9.5028L30.7641 16.0772L29.5315 17.3022C29.1875 17.6394 28.9143 18.0411 28.7279 18.4841C28.5414 18.9271 28.4454 19.4025 28.4454 19.8827C28.4454 20.3629 28.5414 20.8383 28.7279 21.2813C28.9143 21.7242 29.1875 22.126 29.5315 22.4632L30.7714 23.6954L38.7507 32.053C38.9861 32.313 39.155 32.6256 39.2429 32.9643C39.3309 33.303 39.3353 33.6578 39.2559 33.9985C39.1764 34.3393 39.0154 34.656 38.7865 34.9217C38.5576 35.1875 38.2676 35.3944 37.9411 35.525L24.8782 40.338C24.1162 40.6209 23.277 40.6209 22.515 40.338L16.3155 38.0475L10.0648 35.6845C9.38001 35.4294 8.78976 34.9729 8.37275 34.3759C7.95574 33.7789 7.73182 33.0697 7.73086 32.3429V12.7719C7.73067 12.557 7.66639 12.347 7.54616 12.1683C7.42593 11.9897 7.25515 11.8505 7.05536 11.7683C6.85557 11.6861 6.63574 11.6645 6.42365 11.7064C6.21155 11.7483 6.01669 11.8517 5.86369 12.0036L0.991528 15.5336C0.3754 16.1568 0.0275101 16.9939 0.0214844 17.8676V37.7141C0.0231397 38.518 0.272043 39.3023 0.734822 39.9617C1.1976 40.6212 1.85213 41.1242 2.61072 41.4036L4.55812 42.1284L6.42529 42.8098L7.3443 43.1504L10.1524 44.1797L22.6317 48.7898C23.4194 49.0834 24.2874 49.0834 25.0751 48.7898L43.6593 41.8674C44.7553 41.4612 45.7003 40.7319 46.3677 39.7772C47.0351 38.8224 47.3931 37.6878 47.3936 36.5253V31.6398C47.3915 30.2327 46.8398 28.8813 45.8547 27.8706L39.0935 20.941C38.6494 20.4911 38.4006 19.886 38.4006 19.2557C38.4006 18.6254 38.6494 18.0203 39.0935 17.5704L46.4309 10.2204Z" fill="#CED5DA"/>
<path d="M60.6251 1.15251V14.0404H57.4014V1.15251H60.6251Z" fill="#CED5DA"/>
<path d="M76.1528 6.79911V14.0476H73.7459L73.6146 12.4747C73.1178 13.0723 72.4886 13.5475 71.7762 13.8631C71.0638 14.1787 70.2876 14.3263 69.5083 14.2941C65.4457 14.2941 62.6085 11.4309 62.6085 7.73418C62.5808 6.82605 62.7414 5.92197 63.0802 5.07813C63.419 4.23429 63.9288 3.46873 64.578 2.82902C65.2272 2.18931 66.0018 1.68913 66.8537 1.35957C67.7056 1.03001 68.6167 0.878109 69.5302 0.913317C72.7175 0.913317 75.4599 2.67471 76.0142 5.74808H72.6227C72.3994 5.14321 71.9838 4.62713 71.439 4.27792C70.8942 3.92872 70.2497 3.76541 69.6031 3.81273C68.6231 3.85538 67.6976 4.27228 67.0193 4.97652C66.341 5.68076 65.9624 6.61798 65.9624 7.59283C65.9624 8.56767 66.341 9.50491 67.0193 10.2091C67.6976 10.9134 68.6231 11.3303 69.6031 11.3729C70.2901 11.391 70.9677 11.211 71.554 10.8547C72.1403 10.4984 72.6102 9.98103 72.9071 9.36508L69.1801 9.32885V6.80637L76.1528 6.79911Z" fill="#CED5DA"/>
<path d="M91.7759 7.59645C91.8035 8.95246 91.424 10.2859 90.686 11.4267C89.948 12.5676 88.8848 13.4642 87.632 14.0021C86.3793 14.5401 84.9937 14.6951 83.6519 14.4474C82.3102 14.1997 81.073 13.5605 80.0982 12.6113C79.1235 11.6621 78.4552 10.4459 78.1787 9.11774C77.9021 7.7896 78.0299 6.4097 78.5456 5.15398C79.0613 3.89826 79.9416 2.82362 81.0742 2.06707C82.2069 1.31052 83.5406 0.906347 84.9053 0.906071C85.8023 0.882743 86.6948 1.03882 87.5299 1.36504C88.365 1.69126 89.1256 2.18097 89.7665 2.80506C90.4074 3.42915 90.9155 4.17489 91.2607 4.99799C91.6059 5.82108 91.7811 6.70474 91.7759 7.59645ZM88.5084 7.59645C88.4855 6.89363 88.2548 6.21307 87.8453 5.63966C87.4357 5.06626 86.8653 4.6254 86.2052 4.37208C85.5452 4.11876 84.8247 4.06419 84.1336 4.21518C83.4425 4.36616 82.8115 4.71602 82.3192 5.22111C81.8269 5.7262 81.4952 6.36416 81.3653 7.05541C81.2355 7.74667 81.3134 8.46061 81.5892 9.10818C81.865 9.75575 82.3265 10.3083 82.9162 10.6969C83.506 11.0854 84.1978 11.2928 84.9053 11.2932C85.3885 11.2934 85.8668 11.1971 86.3117 11.01C86.7566 10.8228 87.1591 10.5486 87.4952 10.2037C87.8314 9.85886 88.0943 9.45031 88.2684 9.00239C88.4424 8.55448 88.5241 8.07636 88.5084 7.59645Z" fill="#CED5DA"/>
<path d="M101.899 14.0404L99.4415 10.3074H96.9836V14.0404H93.7598V1.15251H99.4196C102.643 1.15251 104.802 2.89216 104.802 5.68284C104.817 6.4602 104.622 7.22729 104.237 7.90422C103.852 8.58116 103.292 9.14319 102.614 9.5318L105.67 14.0404H101.899ZM96.9836 7.42248H99.3686C100.601 7.42248 101.557 6.74112 101.557 5.68284C101.557 4.62455 100.579 3.97219 99.3686 3.97219H96.9836V7.42248Z" fill="#CED5DA"/>
<path d="M65.541 30.712L63.0831 26.979H60.6251V30.712H57.4014V17.8241H63.0612C66.285 17.8241 68.4439 19.5638 68.4439 22.3544C68.4587 23.1318 68.2635 23.8989 67.8787 24.5758C67.4938 25.2528 66.9334 25.8148 66.2558 26.2034L69.3119 30.712H65.541ZM60.6251 24.0941H63.0102C64.2501 24.0941 65.1982 23.4127 65.1982 22.3544C65.1982 21.2962 64.2282 20.6438 63.0102 20.6438H60.6251V24.0941Z" fill="#CED5DA"/>
<path d="M83.5709 24.268C83.5984 25.624 83.219 26.9575 82.4809 28.0983C81.7429 29.2392 80.6797 30.1358 79.427 30.6737C78.1742 31.2117 76.7886 31.3667 75.4469 31.119C74.1051 30.8713 72.8679 30.2321 71.8932 29.2829C70.9184 28.3337 70.2501 27.1175 69.9736 25.7893C69.697 24.4612 69.8248 23.0813 70.3405 21.8256C70.8562 20.5699 71.7365 19.4952 72.8692 18.7387C74.0018 17.9821 75.3355 17.5779 76.7003 17.5777C77.5975 17.5533 78.4905 17.7087 79.326 18.0346C80.1616 18.3604 80.9226 18.8501 81.5637 19.4744C82.2048 20.0987 82.7129 20.8448 83.0577 21.6684C83.4026 22.4919 83.5771 23.376 83.5709 24.268ZM80.3106 24.268C80.2891 23.5634 80.0592 22.8807 79.6497 22.3051C79.2401 21.7296 78.6691 21.2867 78.0077 21.0317C77.3464 20.7767 76.6242 20.721 75.9312 20.8715C75.2383 21.0219 74.6052 21.372 74.1112 21.8778C73.6172 22.3837 73.284 23.0229 73.1534 23.7158C73.0227 24.4087 73.1003 25.1245 73.3765 25.7738C73.6526 26.4231 74.1152 26.9772 74.7063 27.3668C75.2974 27.7565 75.9909 27.9645 76.7003 27.9648C77.184 27.966 77.6631 27.8704 78.1088 27.6837C78.5546 27.497 78.958 27.2229 79.2949 26.878C79.6319 26.533 79.8954 26.1241 80.0699 25.6757C80.2444 25.2273 80.3263 24.7486 80.3106 24.268Z" fill="#CED5DA"/>
<path d="M97.7564 24.2318C97.7564 28.059 94.839 30.712 90.7545 30.712H85.5469V17.8241H90.7545C94.839 17.8241 97.7564 20.4553 97.7564 24.2318ZM94.4962 24.2318C94.4907 23.7537 94.3888 23.2816 94.1964 22.8434C94.004 22.4052 93.7252 22.0098 93.3763 21.6807C93.0274 21.3515 92.6156 21.0953 92.1652 20.9271C91.7149 20.759 91.2352 20.6823 90.7545 20.7018H88.7706V27.8271H90.7545C91.2395 27.8406 91.7223 27.7578 92.1747 27.5835C92.6271 27.4093 93.0399 27.147 93.3891 26.8122C93.7382 26.4774 94.0166 26.0767 94.208 25.6336C94.3993 25.1905 94.4998 24.714 94.5035 24.2318H94.4962Z" fill="#CED5DA"/>
<path d="M107.895 30.712L105.43 26.979H102.972V30.712H99.748V17.8241H105.415C108.639 17.8241 110.791 19.5638 110.791 22.3544C110.805 23.1318 110.61 23.8989 110.225 24.5758C109.841 25.2528 109.28 25.8148 108.603 26.2034L111.659 30.712H107.895ZM102.972 24.0941H105.357C106.597 24.0941 107.545 23.4127 107.545 22.3544C107.545 21.2962 106.575 20.6438 105.357 20.6438H102.972V24.0941Z" fill="#CED5DA"/>
<path d="M116.078 17.8241V30.712H112.854V17.8241H116.078Z" fill="#CED5DA"/>
<path d="M131.606 23.4707V30.7192H129.199L129.068 29.1463C128.571 29.7443 127.942 30.2198 127.23 30.5355C126.517 30.8512 125.741 30.9984 124.961 30.9657C120.899 30.9657 118.062 28.1025 118.062 24.4058C118.034 23.4976 118.195 22.5936 118.533 21.7497C118.872 20.9059 119.382 20.1403 120.031 19.5006C120.68 18.8609 121.455 18.3607 122.307 18.0312C123.159 17.7016 124.07 17.5497 124.983 17.5849C128.171 17.5849 130.913 19.3463 131.467 22.4197H128.076C127.852 21.8148 127.437 21.2987 126.892 20.9495C126.347 20.6003 125.703 20.437 125.056 20.4843C124.076 20.527 123.151 20.9439 122.472 21.6481C121.794 22.3524 121.416 23.2896 121.416 24.2644C121.416 25.2393 121.794 26.1765 122.472 26.8807C123.151 27.585 124.076 28.0019 125.056 28.0445C125.743 28.0626 126.421 27.8826 127.007 27.5263C127.593 27.17 128.063 26.6526 128.36 26.0367L124.641 26.0004V23.478L131.606 23.4707Z" fill="#CED5DA"/>
<path d="M145.683 24.703C145.683 28.7041 143.356 30.9584 139.636 30.9584C135.917 30.9584 133.604 28.7041 133.604 24.703V17.8241H136.85V24.761C136.85 26.7325 137.937 27.9648 139.636 27.9648C141.336 27.9648 142.437 26.7325 142.437 24.761V17.8241H145.683V24.703Z" fill="#CED5DA"/>
<path d="M151 20.6075V22.9416H156.754V25.6743H151V27.914H157.564V30.6975H147.783V17.8241H157.564V20.6075H151Z" fill="#CED5DA"/>
<path d="M169.963 21.8181H166.718C166.55 20.854 165.988 20.1871 164.581 20.1871C163.435 20.1871 162.692 20.6293 162.692 21.4629C162.692 22.2964 163.231 22.5211 164.26 22.7314L166.068 23.1083C168.453 23.6012 169.978 24.558 169.978 26.7905C169.978 29.3638 167.848 30.9584 164.602 30.9584C161.685 30.9584 159.052 29.574 158.768 26.3919H162.013C162.217 27.5299 163.195 28.2475 164.719 28.2475C165.864 28.2475 166.55 27.8126 166.55 27.0877C166.55 26.6383 166.302 26.1599 165.179 25.957L163.042 25.5003C160.482 24.9494 159.285 23.7896 159.285 21.7456C159.285 19.1651 161.379 17.5777 164.435 17.5777C166.528 17.5777 169.657 18.3533 169.963 21.8181Z" fill="#CED5DA"/>
<path d="M66.2914 42.3821C66.2914 45.354 64.1909 47.3836 61.113 47.3836H57.7725V37.5256H61.113C64.2055 37.5256 66.2914 39.5117 66.2914 42.3821ZM65.5621 42.3821C65.5621 39.9031 63.7387 38.1925 61.1275 38.1925H58.5164V46.7022H61.1275C61.7104 46.735 62.2937 46.6463 62.8401 46.4418C63.3864 46.2373 63.8836 45.9215 64.2999 45.5146C64.7161 45.1078 65.0421 44.6189 65.257 44.0795C65.4718 43.54 65.5708 42.9618 65.5475 42.3821H65.5621Z" fill="#CED5DA"/>
<path d="M69.5594 38.1635V42.1067H75.0151V42.7735H69.5594V46.6732H75.5986V47.3546H68.8301V37.4966H75.5986V38.1635H69.5594Z" fill="#CED5DA"/>
<path d="M84.8319 40.0916H84.1025C83.84 38.7868 82.8626 37.9895 81.0684 37.9895C79.4346 37.9895 78.3551 38.7578 78.3551 40.0191C78.3551 40.9614 79.0845 41.5703 80.3536 41.8022L82.177 42.1646C83.8837 42.4691 84.8465 43.3099 84.8465 44.6581C84.8465 46.4268 83.3877 47.5575 81.1997 47.5575C78.8365 47.5575 77.3924 46.3978 77.1152 44.2667H77.8446C78.1072 45.9629 79.2304 46.9052 81.2143 46.9052C82.9356 46.9052 84.0733 46.0644 84.0733 44.7306C84.0733 43.7883 83.3878 43.107 82.0166 42.8605L80.0473 42.4836C78.3989 42.1646 77.5528 41.3093 77.5528 40.0336C77.5528 38.4099 78.9386 37.3516 80.9954 37.3516C83.0522 37.3516 84.5693 38.3229 84.8319 40.0916Z" fill="#CED5DA"/>
<path d="M91.6003 42.3096H96.3996V47.3836H95.7723L95.7139 44.9481C95.3903 45.7418 94.8293 46.4178 94.1066 46.8845C93.384 47.3511 92.5346 47.5861 91.6733 47.5575C91.0006 47.5653 90.3332 47.4394 89.7102 47.1871C89.0873 46.9349 88.5213 46.5614 88.0457 46.0887C87.57 45.616 87.1942 45.0536 86.9404 44.4345C86.6866 43.8153 86.5599 43.152 86.5677 42.4836C86.5599 41.8062 86.6885 41.1342 86.9462 40.5071C87.2038 39.88 87.5852 39.3105 88.0679 38.8322C88.5505 38.3539 89.1246 37.9764 89.7564 37.7222C90.3881 37.4679 91.0647 37.3419 91.7462 37.3516C92.789 37.3125 93.8147 37.6229 94.6586 38.2328C95.5026 38.8428 96.1157 39.717 96.3996 40.7149H95.5681C95.3101 39.9106 94.7936 39.2126 94.0979 38.7281C93.4023 38.2437 92.5658 37.9994 91.717 38.033C91.1288 38.025 90.5449 38.135 90.0004 38.3564C89.4559 38.5778 88.9619 38.9061 88.5479 39.3215C88.1339 39.737 87.8085 40.2311 87.5911 40.7744C87.3737 41.3177 87.2687 41.899 87.2825 42.4836C87.2757 43.0566 87.3842 43.6252 87.6017 44.1559C87.8192 44.6866 88.1413 45.1688 88.549 45.574C88.9567 45.9792 89.4419 46.2993 89.9759 46.5155C90.5099 46.7316 91.0821 46.8395 91.6587 46.8327C93.9635 46.8327 95.4076 45.151 95.6118 42.962H91.5857L91.6003 42.3096Z" fill="#CED5DA"/>
<path d="M100.251 37.5256V47.3836H99.5215V37.5256H100.251Z" fill="#CED5DA"/>
<path d="M111.542 37.5256V47.3836H110.885L104.044 38.7723V47.3836H103.314V37.5256H103.971L110.812 46.1368V37.5256H111.542Z" fill="#CED5DA"/>
<path d="M126.362 47.3836L124.772 46.0064C124.37 46.4991 123.86 46.8947 123.282 47.1634C122.703 47.4321 122.071 47.5668 121.432 47.5575C119.361 47.5575 118.019 46.3833 118.019 44.7451C118.045 44.1104 118.27 43.4997 118.662 42.9982C119.054 42.4966 119.594 42.1292 120.207 41.9472C119.89 41.6761 119.634 41.343 119.453 40.9688C119.272 40.5947 119.171 40.1874 119.156 39.7726C119.156 39.4264 119.228 39.0838 119.368 38.7667C119.508 38.4496 119.713 38.1649 119.969 37.9305C120.226 37.6961 120.528 37.5171 120.858 37.405C121.188 37.2929 121.537 37.25 121.884 37.2791C122.23 37.2606 122.577 37.3107 122.904 37.4263C123.23 37.542 123.531 37.721 123.787 37.953C124.044 38.185 124.251 38.4653 124.398 38.7777C124.544 39.0901 124.627 39.4283 124.641 39.7726H123.912C123.885 39.256 123.654 38.7707 123.269 38.423C122.883 38.0753 122.375 37.8934 121.855 37.917C121.597 37.8967 121.338 37.9303 121.094 38.0155C120.85 38.1008 120.627 38.2358 120.439 38.412C120.251 38.5881 120.102 38.8015 120.001 39.0383C119.901 39.2752 119.852 39.5302 119.857 39.7871C119.857 40.9904 120.848 41.7732 122.716 43.3679L124.656 45.0496L126.377 42.701H127.106L125.152 45.4265C125.152 45.4265 125.152 45.4265 125.152 45.47L127.34 47.3546L126.362 47.3836ZM124.291 45.5859L122.161 43.7448C121.578 43.2374 121.082 42.8025 120.703 42.4256C120.173 42.5487 119.697 42.8378 119.345 43.2502C118.993 43.6626 118.784 44.1765 118.748 44.7161C118.748 45.9919 119.827 46.8907 121.49 46.8907C122.025 46.8905 122.553 46.7735 123.037 46.548C123.521 46.3226 123.949 45.9941 124.291 45.5859Z" fill="#CED5DA"/>
<path d="M145.953 37.5256L142.525 47.4561H141.796L138.879 38.7578L135.961 47.4561H135.232L131.804 37.5256H132.533L135.553 46.3688L138.514 37.5256H139.185L142.146 46.3543L145.166 37.5256H145.953Z" fill="#CED5DA"/>
<path d="M148.607 38.1635V42.1067H154.063V42.7735H148.607V46.6732H154.646V47.3546H147.878V37.4966H154.646V38.1635H148.607Z" fill="#CED5DA"/>
<path d="M164.858 44.6871C164.858 46.2963 163.399 47.3691 161.211 47.3691H157.214V37.5111H161.152C163.078 37.5111 164.318 38.4679 164.318 39.9466C164.34 40.4838 164.169 41.0113 163.835 41.434C163.5 41.8566 163.025 42.1466 162.494 42.2516C164.041 42.5126 164.858 43.4259 164.858 44.6871ZM157.929 38.1635V42.0342H160.846C162.597 42.0342 163.588 41.3093 163.588 40.0191C163.588 38.8883 162.597 38.1635 161.065 38.1635H157.929ZM164.128 44.6146C164.128 43.3679 163.049 42.6575 161.211 42.6575H157.943V46.7167H161.182C162.961 46.7312 164.128 45.8759 164.128 44.6291V44.6146Z" fill="#CED5DA"/>
</g>
<defs>
<clipPath id="clip0_42_3">
<rect width="170" height="49" fill="white"/>
</clipPath>
</defs>
</svg>
